<?xml version="1.0" encoding="UTF-8"?>
<svg xmlns="http://www.w3.org/2000/svg" xmlns:xlink="http://www.w3.org/1999/xlink" width="267.13pt" height="140.82pt" viewBox="0 0 267.13 140.82">
<defs>
<g>
<g id="glyph-0-0">
<path d="M 6.4375 -0.171875 C 6.4375 -0.28125 6.359375 -0.28125 6.234375 -0.28125 C 5.6875 -0.28125 5.6875 -0.34375 5.65625 -0.59375 L 5.109375 -6.1875 C 5.09375 -6.359375 5.09375 -6.40625 4.9375 -6.40625 C 4.796875 -6.40625 4.765625 -6.34375 4.703125 -6.25 L 1.59375 -1.03125 C 1.25 -0.421875 0.890625 -0.296875 0.5 -0.28125 C 0.390625 -0.265625 0.3125 -0.265625 0.3125 -0.09375 C 0.3125 -0.046875 0.359375 0 0.421875 0 C 0.671875 0 0.953125 -0.03125 1.203125 -0.03125 C 1.5 -0.03125 1.8125 0 2.09375 0 C 2.140625 0 2.265625 0 2.265625 -0.171875 C 2.265625 -0.265625 2.1875 -0.28125 2.125 -0.28125 C 1.90625 -0.296875 1.703125 -0.359375 1.703125 -0.59375 C 1.703125 -0.703125 1.75 -0.796875 1.828125 -0.921875 C 1.890625 -1.03125 1.890625 -1.03125 2.5 -2.0625 L 4.75 -2.0625 C 4.765625 -1.875 4.890625 -0.65625 4.890625 -0.578125 C 4.890625 -0.296875 4.421875 -0.28125 4.25 -0.28125 C 4.125 -0.28125 4.03125 -0.28125 4.03125 -0.09375 C 4.03125 0 4.15625 0 4.15625 0 C 4.515625 0 4.90625 -0.03125 5.265625 -0.03125 C 5.5 -0.03125 6.0625 0 6.28125 0 C 6.34375 0 6.4375 0 6.4375 -0.171875 Z M 4.71875 -2.34375 L 2.671875 -2.34375 L 4.4375 -5.296875 Z M 4.71875 -2.34375 "/>
</g>
<g id="glyph-0-1">
<path d="M 6.75 -4.875 C 6.75 -5.53125 6.171875 -6.109375 5.09375 -6.109375 L 2.09375 -6.109375 C 1.921875 -6.109375 1.828125 -6.109375 1.828125 -5.921875 C 1.828125 -5.828125 1.90625 -5.828125 2.078125 -5.828125 C 2.078125 -5.828125 2.265625 -5.828125 2.421875 -5.8125 C 2.578125 -5.796875 2.65625 -5.78125 2.65625 -5.671875 C 2.65625 -5.625 2.65625 -5.609375 2.625 -5.5 L 1.4375 -0.703125 C 1.34375 -0.34375 1.328125 -0.28125 0.609375 -0.28125 C 0.46875 -0.28125 0.375 -0.28125 0.375 -0.09375 C 0.375 0 0.453125 0 0.609375 0 L 3.8125 0 C 5.21875 0 6.28125 -1.046875 6.28125 -1.9375 C 6.28125 -2.578125 5.75 -3.09375 4.890625 -3.1875 C 5.8125 -3.359375 6.75 -4.015625 6.75 -4.875 Z M 5.9375 -4.90625 C 5.9375 -4.125 5.171875 -3.265625 4.078125 -3.265625 L 2.78125 -3.265625 L 3.328125 -5.484375 C 3.421875 -5.796875 3.4375 -5.828125 3.8125 -5.828125 L 4.96875 -5.828125 C 5.75 -5.828125 5.9375 -5.296875 5.9375 -4.90625 Z M 5.4375 -2.03125 C 5.4375 -1.140625 4.640625 -0.28125 3.59375 -0.28125 L 2.375 -0.28125 C 2.25 -0.28125 2.234375 -0.28125 2.1875 -0.28125 C 2.09375 -0.296875 2.0625 -0.296875 2.0625 -0.375 C 2.0625 -0.40625 2.0625 -0.421875 2.109375 -0.578125 L 2.71875 -3.078125 L 4.421875 -3.078125 C 5.265625 -3.078125 5.4375 -2.40625 5.4375 -2.03125 Z M 5.4375 -2.03125 "/>
</g>
<g id="glyph-0-2">
<path d="M 5.75 -2.203125 C 5.75 -2.25 5.71875 -2.3125 5.640625 -2.3125 C 5.5625 -2.3125 5.546875 -2.265625 5.484375 -2.125 C 5.1875 -1.296875 4.796875 -0.28125 3.25 -0.28125 L 2.40625 -0.28125 C 2.28125 -0.28125 2.265625 -0.28125 2.203125 -0.28125 C 2.125 -0.296875 2.09375 -0.296875 2.09375 -0.375 C 2.09375 -0.40625 2.09375 -0.421875 2.140625 -0.578125 L 3.34375 -5.40625 C 3.421875 -5.734375 3.453125 -5.828125 4.296875 -5.828125 C 4.5625 -5.828125 4.625 -5.828125 4.625 -6 C 4.625 -6.109375 4.53125 -6.109375 4.484375 -6.109375 L 3.15625 -6.078125 L 1.96875 -6.109375 C 1.90625 -6.109375 1.8125 -6.109375 1.8125 -5.921875 C 1.8125 -5.828125 1.890625 -5.828125 2.0625 -5.828125 C 2.0625 -5.828125 2.25 -5.828125 2.390625 -5.8125 C 2.5625 -5.796875 2.640625 -5.78125 2.640625 -5.671875 C 2.640625 -5.625 2.625 -5.609375 2.59375 -5.5 L 1.40625 -0.703125 C 1.3125 -0.34375 1.296875 -0.28125 0.59375 -0.28125 C 0.4375 -0.28125 0.34375 -0.28125 0.34375 -0.09375 C 0.34375 0 0.421875 0 0.59375 0 L 4.734375 0 C 4.9375 0 4.953125 0 5 -0.15625 L 5.71875 -2.078125 C 5.75 -2.1875 5.75 -2.203125 5.75 -2.203125 Z M 5.75 -2.203125 "/>
</g>
<g id="glyph-0-3">
<path d="M 9.359375 -6 C 9.359375 -6.046875 9.328125 -6.109375 9.265625 -6.109375 C 9.046875 -6.109375 8.796875 -6.078125 8.578125 -6.078125 C 8.265625 -6.078125 7.9375 -6.109375 7.640625 -6.109375 C 7.59375 -6.109375 7.46875 -6.109375 7.46875 -5.9375 C 7.46875 -5.84375 7.546875 -5.828125 7.609375 -5.828125 C 7.828125 -5.8125 8.140625 -5.75 8.140625 -5.484375 C 8.140625 -5.375 8.09375 -5.3125 8.015625 -5.1875 L 5.609375 -0.96875 L 5.265625 -5.40625 C 5.265625 -5.59375 5.25 -5.8125 5.90625 -5.828125 C 6.046875 -5.828125 6.140625 -5.828125 6.140625 -6 C 6.140625 -6.09375 6.046875 -6.109375 6 -6.109375 C 5.65625 -6.109375 5.265625 -6.078125 4.921875 -6.078125 C 4.703125 -6.078125 4.1875 -6.109375 3.984375 -6.109375 C 3.921875 -6.109375 3.8125 -6.109375 3.8125 -5.921875 C 3.8125 -5.828125 3.890625 -5.828125 4.015625 -5.828125 C 4.421875 -5.828125 4.484375 -5.78125 4.5 -5.609375 L 4.546875 -4.921875 L 2.28125 -0.96875 L 1.953125 -5.5 C 1.953125 -5.609375 1.953125 -5.8125 2.625 -5.828125 C 2.71875 -5.828125 2.8125 -5.828125 2.8125 -6 C 2.8125 -6.109375 2.6875 -6.109375 2.6875 -6.109375 C 2.328125 -6.109375 1.953125 -6.078125 1.59375 -6.078125 C 1.28125 -6.078125 0.953125 -6.109375 0.65625 -6.109375 C 0.609375 -6.109375 0.484375 -6.109375 0.484375 -5.9375 C 0.484375 -5.828125 0.578125 -5.828125 0.71875 -5.828125 C 1.15625 -5.828125 1.171875 -5.75 1.1875 -5.5 L 1.59375 -0.03125 C 1.59375 0.125 1.609375 0.203125 1.734375 0.203125 C 1.84375 0.203125 1.875 0.140625 1.953125 0.015625 L 4.578125 -4.546875 L 4.90625 -0.03125 C 4.921875 0.15625 4.9375 0.203125 5.046875 0.203125 C 5.171875 0.203125 5.21875 0.109375 5.265625 0.03125 L 8.203125 -5.0625 C 8.421875 -5.453125 8.640625 -5.78125 9.203125 -5.828125 C 9.28125 -5.84375 9.359375 -5.84375 9.359375 -6 Z M 9.359375 -6 "/>
</g>
<g id="glyph-1-0">
<path d="M 0.953125 0.03125 C 0.910156 0.03125 0.875 0.0195312 0.84375 0 C 0.820312 -0.03125 0.8125 -0.0546875 0.8125 -0.078125 C 0.8125 -0.128906 0.859375 -0.171875 0.953125 -0.203125 C 1.179688 -0.253906 1.367188 -0.304688 1.515625 -0.359375 C 1.660156 -0.410156 1.765625 -0.484375 1.828125 -0.578125 C 1.898438 -0.671875 1.9375 -0.800781 1.9375 -0.96875 L 1.9375 -4.375 C 1.9375 -4.488281 1.898438 -4.570312 1.828125 -4.625 C 1.753906 -4.6875 1.660156 -4.726562 1.546875 -4.75 C 1.429688 -4.78125 1.3125 -4.796875 1.1875 -4.796875 C 1.125 -4.804688 1.066406 -4.820312 1.015625 -4.84375 C 0.972656 -4.863281 0.953125 -4.898438 0.953125 -4.953125 C 0.953125 -4.992188 0.972656 -5.03125 1.015625 -5.0625 C 1.066406 -5.09375 1.117188 -5.109375 1.171875 -5.109375 C 1.441406 -5.148438 1.679688 -5.203125 1.890625 -5.265625 C 2.097656 -5.328125 2.304688 -5.460938 2.515625 -5.671875 C 2.515625 -5.671875 2.519531 -5.671875 2.53125 -5.671875 C 2.539062 -5.671875 2.550781 -5.671875 2.5625 -5.671875 C 2.582031 -5.671875 2.601562 -5.660156 2.625 -5.640625 C 2.65625 -5.628906 2.664062 -5.613281 2.65625 -5.59375 C 2.644531 -5.5 2.632812 -5.398438 2.625 -5.296875 C 2.625 -5.191406 2.625 -5.078125 2.625 -4.953125 L 2.625 -0.859375 C 2.625 -0.710938 2.648438 -0.597656 2.703125 -0.515625 C 2.765625 -0.441406 2.863281 -0.382812 3 -0.34375 C 3.132812 -0.300781 3.328125 -0.25 3.578125 -0.1875 C 3.609375 -0.175781 3.640625 -0.160156 3.671875 -0.140625 C 3.703125 -0.117188 3.71875 -0.0976562 3.71875 -0.078125 C 3.71875 -0.00390625 3.675781 0.03125 3.59375 0.03125 C 3.425781 0.03125 3.273438 0.0234375 3.140625 0.015625 C 3.003906 0.00390625 2.867188 0 2.734375 0 C 2.597656 -0.0078125 2.445312 -0.015625 2.28125 -0.015625 C 2.125 -0.015625 1.972656 -0.0078125 1.828125 0 C 1.691406 0 1.550781 0.00390625 1.40625 0.015625 C 1.257812 0.0234375 1.109375 0.03125 0.953125 0.03125 Z M 0.953125 0.03125 "/>
</g>
<g id="glyph-1-1">
<path d="M 3.734375 0.03125 C 3.691406 0.03125 3.625 0.0234375 3.53125 0.015625 C 3.445312 0.015625 3.347656 0.0078125 3.234375 0 C 3.117188 -0.0078125 3 -0.015625 2.875 -0.015625 C 2.757812 -0.0234375 2.644531 -0.03125 2.53125 -0.03125 C 2.414062 -0.03125 2.253906 -0.0234375 2.046875 -0.015625 C 1.835938 -0.015625 1.617188 -0.0078125 1.390625 0 C 1.171875 0 0.972656 0 0.796875 0 C 0.617188 0.0078125 0.507812 0.015625 0.46875 0.015625 C 0.445312 0.015625 0.410156 0 0.359375 -0.03125 C 0.316406 -0.0703125 0.296875 -0.109375 0.296875 -0.140625 C 0.296875 -0.160156 0.300781 -0.175781 0.3125 -0.1875 C 0.320312 -0.207031 0.335938 -0.226562 0.359375 -0.25 L 1.890625 -1.828125 C 2.179688 -2.128906 2.425781 -2.472656 2.625 -2.859375 C 2.820312 -3.242188 2.921875 -3.632812 2.921875 -4.03125 C 2.921875 -4.34375 2.820312 -4.585938 2.625 -4.765625 C 2.4375 -4.953125 2.21875 -5.046875 1.96875 -5.046875 C 1.71875 -5.046875 1.488281 -4.976562 1.28125 -4.84375 C 1.070312 -4.707031 0.90625 -4.53125 0.78125 -4.3125 C 0.769531 -4.28125 0.75 -4.25 0.71875 -4.21875 C 0.695312 -4.195312 0.671875 -4.1875 0.640625 -4.1875 C 0.609375 -4.1875 0.578125 -4.210938 0.546875 -4.265625 C 0.515625 -4.316406 0.5 -4.382812 0.5 -4.46875 C 0.5 -4.53125 0.539062 -4.625 0.625 -4.75 C 0.71875 -4.875 0.835938 -5 0.984375 -5.125 C 1.140625 -5.257812 1.320312 -5.375 1.53125 -5.46875 C 1.75 -5.5625 1.984375 -5.609375 2.234375 -5.609375 C 2.535156 -5.609375 2.789062 -5.546875 3 -5.421875 C 3.21875 -5.296875 3.382812 -5.125 3.5 -4.90625 C 3.613281 -4.6875 3.671875 -4.429688 3.671875 -4.140625 C 3.671875 -3.984375 3.640625 -3.8125 3.578125 -3.625 C 3.523438 -3.4375 3.445312 -3.253906 3.34375 -3.078125 C 3.25 -2.898438 3.140625 -2.734375 3.015625 -2.578125 C 2.941406 -2.484375 2.828125 -2.359375 2.671875 -2.203125 C 2.515625 -2.046875 2.347656 -1.878906 2.171875 -1.703125 C 2.003906 -1.523438 1.84375 -1.359375 1.6875 -1.203125 C 1.53125 -1.046875 1.398438 -0.914062 1.296875 -0.8125 C 1.191406 -0.707031 1.140625 -0.644531 1.140625 -0.625 C 1.140625 -0.601562 1.179688 -0.582031 1.265625 -0.5625 C 1.367188 -0.5625 1.484375 -0.554688 1.609375 -0.546875 C 1.734375 -0.546875 1.878906 -0.546875 2.046875 -0.546875 C 2.222656 -0.546875 2.394531 -0.546875 2.5625 -0.546875 C 2.738281 -0.554688 2.90625 -0.5625 3.0625 -0.5625 C 3.238281 -0.582031 3.375 -0.597656 3.46875 -0.609375 C 3.5625 -0.628906 3.640625 -0.664062 3.703125 -0.71875 C 3.773438 -0.78125 3.847656 -0.867188 3.921875 -0.984375 C 3.941406 -1.023438 3.96875 -1.066406 4 -1.109375 C 4.039062 -1.160156 4.085938 -1.1875 4.140625 -1.1875 C 4.171875 -1.1875 4.1875 -1.175781 4.1875 -1.15625 C 4.195312 -1.132812 4.203125 -1.113281 4.203125 -1.09375 C 4.203125 -1.0625 4.179688 -1 4.140625 -0.90625 C 4.109375 -0.820312 4.070312 -0.71875 4.03125 -0.59375 C 4 -0.46875 3.96875 -0.332031 3.9375 -0.1875 C 3.914062 -0.09375 3.882812 -0.03125 3.84375 0 C 3.800781 0.0195312 3.765625 0.03125 3.734375 0.03125 Z M 3.734375 0.03125 "/>
</g>
</g>
</defs>
<g fill="rgb(0%, 0%, 0%)" fill-opacity="1">
<use xlink:href="#glyph-0-0" x="128.787559" y="135.535895"/>
</g>
<path fill="none" stroke-width="0.3985" stroke-linecap="butt" stroke-linejoin="miter" stroke="rgb(0%, 0%, 0%)" stroke-opacity="1" stroke-miterlimit="10" d="M 176.340824 11.95432 C 176.340824 13.055551 175.447298 13.949076 174.349986 13.949076 C 173.248755 13.949076 172.355229 13.055551 172.355229 11.95432 C 172.355229 10.853089 173.248755 9.963482 174.349986 9.963482 C 175.447298 9.963482 176.340824 10.853089 176.340824 11.95432 Z M 176.340824 11.95432 " transform="matrix(0.996754, 0, 0, -0.996754, -41.643374, 136.728013)"/>
<path fill="none" stroke-width="0.3985" stroke-linecap="butt" stroke-linejoin="miter" stroke="rgb(0%, 0%, 0%)" stroke-opacity="1" stroke-miterlimit="10" d="M 172.355229 12.949739 L 103.612541 47.323042 " transform="matrix(0.996754, 0, 0, -0.996754, -41.643374, 136.728013)"/>
<path fill="none" stroke-width="0.3985" stroke-linecap="butt" stroke-linejoin="miter" stroke="rgb(0%, 0%, 0%)" stroke-opacity="1" stroke-miterlimit="10" d="M 176.340824 12.949739 L 245.083512 47.323042 " transform="matrix(0.996754, 0, 0, -0.996754, -41.643374, 136.728013)"/>
<g fill="rgb(0%, 0%, 0%)" fill-opacity="1">
<use xlink:href="#glyph-1-0" x="90.271998" y="115.648665"/>
</g>
<g fill="rgb(0%, 0%, 0%)" fill-opacity="1">
<use xlink:href="#glyph-1-1" x="169.716261" y="115.648665"/>
</g>
<g fill="rgb(0%, 0%, 0%)" fill-opacity="1">
<use xlink:href="#glyph-0-1" x="59.122448" y="100.780089"/>
</g>
<path fill-rule="nonzero" fill="rgb(0%, 0%, 0%)" fill-opacity="1" d="M 64.613281 90.054688 C 64.613281 88.957031 63.722656 88.070312 62.625 88.070312 C 61.527344 88.070312 60.640625 88.957031 60.640625 90.054688 C 60.640625 91.152344 61.527344 92.042969 62.625 92.042969 C 63.722656 92.042969 64.613281 91.152344 64.613281 90.054688 Z M 64.613281 90.054688 "/>
<path fill="none" stroke-width="0.3985" stroke-linecap="butt" stroke-linejoin="miter" stroke="rgb(0%, 0%, 0%)" stroke-opacity="1" stroke-miterlimit="10" d="M 104.60796 46.825333 L 69.740865 81.696346 " transform="matrix(0.996754, 0, 0, -0.996754, -41.643374, 136.728013)"/>
<path fill="none" stroke-width="0.3985" stroke-linecap="butt" stroke-linejoin="miter" stroke="rgb(0%, 0%, 0%)" stroke-opacity="1" stroke-miterlimit="10" d="M 104.60796 46.825333 L 139.478973 81.696346 " transform="matrix(0.996754, 0, 0, -0.996754, -41.643374, 136.728013)"/>
<g fill="rgb(0%, 0%, 0%)" fill-opacity="1">
<use xlink:href="#glyph-1-0" x="35.654878" y="80.891862"/>
</g>
<g fill="rgb(0%, 0%, 0%)" fill-opacity="1">
<use xlink:href="#glyph-1-1" x="85.307168" y="80.891862"/>
</g>
<g fill="rgb(0%, 0%, 0%)" fill-opacity="1">
<use xlink:href="#glyph-0-1" x="198.148661" y="100.780089"/>
</g>
<path fill-rule="nonzero" fill="rgb(0%, 0%, 0%)" fill-opacity="1" d="M 203.636719 90.054688 C 203.636719 88.957031 202.75 88.070312 201.652344 88.070312 C 200.554688 88.070312 199.664062 88.957031 199.664062 90.054688 C 199.664062 91.152344 200.554688 92.042969 201.652344 92.042969 C 202.75 92.042969 203.636719 91.152344 203.636719 90.054688 Z M 203.636719 90.054688 "/>
<path fill="none" stroke-width="0.3985" stroke-linecap="butt" stroke-linejoin="miter" stroke="rgb(0%, 0%, 0%)" stroke-opacity="1" stroke-miterlimit="10" d="M 244.088093 46.825333 L 209.21708 81.696346 " transform="matrix(0.996754, 0, 0, -0.996754, -41.643374, 136.728013)"/>
<path fill="none" stroke-width="0.3985" stroke-linecap="butt" stroke-linejoin="miter" stroke="rgb(0%, 0%, 0%)" stroke-opacity="1" stroke-miterlimit="10" d="M 244.088093 46.825333 L 278.959107 81.696346 " transform="matrix(0.996754, 0, 0, -0.996754, -41.643374, 136.728013)"/>
<g fill="rgb(0%, 0%, 0%)" fill-opacity="1">
<use xlink:href="#glyph-1-0" x="174.681091" y="80.891862"/>
</g>
<g fill="rgb(0%, 0%, 0%)" fill-opacity="1">
<use xlink:href="#glyph-1-1" x="224.333382" y="80.891862"/>
</g>
<g fill="rgb(0%, 0%, 0%)" fill-opacity="1">
<use xlink:href="#glyph-0-0" x="24.518148" y="66.023287"/>
</g>
<path fill-rule="nonzero" fill="rgb(0%, 0%, 0%)" fill-opacity="1" d="M 29.855469 55.296875 C 29.855469 54.203125 28.964844 53.3125 27.871094 53.3125 C 26.773438 53.3125 25.882812 54.203125 25.882812 55.296875 C 25.882812 56.394531 26.773438 57.285156 27.871094 57.285156 C 28.964844 57.285156 29.855469 56.394531 29.855469 55.296875 Z M 29.855469 55.296875 "/>
<path fill="none" stroke-width="0.3985" stroke-linecap="butt" stroke-linejoin="miter" stroke="rgb(0%, 0%, 0%)" stroke-opacity="1" stroke-miterlimit="10" d="M 69.740865 81.696346 L 49.812893 121.544454 " transform="matrix(0.996754, 0, 0, -0.996754, -41.643374, 136.728013)"/>
<g fill="rgb(0%, 0%, 0%)" fill-opacity="1">
<use xlink:href="#glyph-0-2" x="4.965827" y="11.406166"/>
</g>
<path fill="none" stroke-width="0.3985" stroke-linecap="butt" stroke-linejoin="miter" stroke="rgb(0%, 0%, 0%)" stroke-opacity="1" stroke-miterlimit="10" d="M 69.740865 81.696346 L 89.664919 121.544454 " transform="matrix(0.996754, 0, 0, -0.996754, -41.643374, 136.728013)"/>
<g fill="rgb(0%, 0%, 0%)" fill-opacity="1">
<use xlink:href="#glyph-0-2" x="44.68746" y="11.406166"/>
</g>
<g fill="rgb(0%, 0%, 0%)" fill-opacity="1">
<use xlink:href="#glyph-1-0" x="10.828733" y="41.170229"/>
</g>
<g fill="rgb(0%, 0%, 0%)" fill-opacity="1">
<use xlink:href="#glyph-1-1" x="40.620705" y="41.170229"/>
</g>
<g fill="rgb(0%, 0%, 0%)" fill-opacity="1">
<use xlink:href="#glyph-0-0" x="94.030757" y="66.023287"/>
</g>
<path fill-rule="nonzero" fill="rgb(0%, 0%, 0%)" fill-opacity="1" d="M 99.367188 55.296875 C 99.367188 54.203125 98.480469 53.3125 97.382812 53.3125 C 96.285156 53.3125 95.398438 54.203125 95.398438 55.296875 C 95.398438 56.394531 96.285156 57.285156 97.382812 57.285156 C 98.480469 57.285156 99.367188 56.394531 99.367188 55.296875 Z M 99.367188 55.296875 "/>
<path fill="none" stroke-width="0.3985" stroke-linecap="butt" stroke-linejoin="miter" stroke="rgb(0%, 0%, 0%)" stroke-opacity="1" stroke-miterlimit="10" d="M 139.478973 81.696346 L 119.554919 121.544454 " transform="matrix(0.996754, 0, 0, -0.996754, -41.643374, 136.728013)"/>
<g fill="rgb(0%, 0%, 0%)" fill-opacity="1">
<use xlink:href="#glyph-0-2" x="74.478436" y="11.406166"/>
</g>
<path fill="none" stroke-width="0.3985" stroke-linecap="butt" stroke-linejoin="miter" stroke="rgb(0%, 0%, 0%)" stroke-opacity="1" stroke-miterlimit="10" d="M 139.478973 81.696346 L 159.403027 121.544454 " transform="matrix(0.996754, 0, 0, -0.996754, -41.643374, 136.728013)"/>
<g fill="rgb(0%, 0%, 0%)" fill-opacity="1">
<use xlink:href="#glyph-0-3" x="112.434818" y="11.209806"/>
</g>
<g fill="rgb(0%, 0%, 0%)" fill-opacity="1">
<use xlink:href="#glyph-1-0" x="70.41168" y="41.170229"/>
</g>
<g fill="rgb(0%, 0%, 0%)" fill-opacity="1">
<use xlink:href="#glyph-1-1" x="110.133313" y="41.170229"/>
</g>
<g fill="rgb(0%, 0%, 0%)" fill-opacity="1">
<use xlink:href="#glyph-0-0" x="163.544362" y="66.023287"/>
</g>
<path fill-rule="nonzero" fill="rgb(0%, 0%, 0%)" fill-opacity="1" d="M 168.882812 55.296875 C 168.882812 54.203125 167.992188 53.3125 166.894531 53.3125 C 165.796875 53.3125 164.910156 54.203125 164.910156 55.296875 C 164.910156 56.394531 165.796875 57.285156 166.894531 57.285156 C 167.992188 57.285156 168.882812 56.394531 168.882812 55.296875 Z M 168.882812 55.296875 "/>
<path fill="none" stroke-width="0.3985" stroke-linecap="butt" stroke-linejoin="miter" stroke="rgb(0%, 0%, 0%)" stroke-opacity="1" stroke-miterlimit="10" d="M 209.21708 81.696346 L 189.293026 121.544454 " transform="matrix(0.996754, 0, 0, -0.996754, -41.643374, 136.728013)"/>
<g fill="rgb(0%, 0%, 0%)" fill-opacity="1">
<use xlink:href="#glyph-0-2" x="143.991044" y="11.406166"/>
</g>
<path fill="none" stroke-width="0.3985" stroke-linecap="butt" stroke-linejoin="miter" stroke="rgb(0%, 0%, 0%)" stroke-opacity="1" stroke-miterlimit="10" d="M 209.21708 81.696346 L 229.145053 121.544454 " transform="matrix(0.996754, 0, 0, -0.996754, -41.643374, 136.728013)"/>
<g fill="rgb(0%, 0%, 0%)" fill-opacity="1">
<use xlink:href="#glyph-0-3" x="181.948423" y="11.209806"/>
</g>
<g fill="rgb(0%, 0%, 0%)" fill-opacity="1">
<use xlink:href="#glyph-1-0" x="149.854946" y="41.170229"/>
</g>
<g fill="rgb(0%, 0%, 0%)" fill-opacity="1">
<use xlink:href="#glyph-1-1" x="179.645922" y="41.170229"/>
</g>
<g fill="rgb(0%, 0%, 0%)" fill-opacity="1">
<use xlink:href="#glyph-0-0" x="233.05697" y="66.023287"/>
</g>
<path fill-rule="nonzero" fill="rgb(0%, 0%, 0%)" fill-opacity="1" d="M 238.394531 55.296875 C 238.394531 54.203125 237.503906 53.3125 236.410156 53.3125 C 235.3125 53.3125 234.421875 54.203125 234.421875 55.296875 C 234.421875 56.394531 235.3125 57.285156 236.410156 57.285156 C 237.503906 57.285156 238.394531 56.394531 238.394531 55.296875 Z M 238.394531 55.296875 "/>
<path fill="none" stroke-width="0.3985" stroke-linecap="butt" stroke-linejoin="miter" stroke="rgb(0%, 0%, 0%)" stroke-opacity="1" stroke-miterlimit="10" d="M 278.959107 81.696346 L 259.031134 121.544454 " transform="matrix(0.996754, 0, 0, -0.996754, -41.643374, 136.728013)"/>
<g fill="rgb(0%, 0%, 0%)" fill-opacity="1">
<use xlink:href="#glyph-0-3" x="211.739398" y="11.209806"/>
</g>
<path fill="none" stroke-width="0.3985" stroke-linecap="butt" stroke-linejoin="miter" stroke="rgb(0%, 0%, 0%)" stroke-opacity="1" stroke-miterlimit="10" d="M 278.959107 81.696346 L 298.88316 121.544454 " transform="matrix(0.996754, 0, 0, -0.996754, -41.643374, 136.728013)"/>
<g fill="rgb(0%, 0%, 0%)" fill-opacity="1">
<use xlink:href="#glyph-0-2" x="253.226282" y="11.406166"/>
</g>
<g fill="rgb(0%, 0%, 0%)" fill-opacity="1">
<use xlink:href="#glyph-1-0" x="219.367555" y="41.170229"/>
</g>
<g fill="rgb(0%, 0%, 0%)" fill-opacity="1">
<use xlink:href="#glyph-1-1" x="249.159527" y="41.170229"/>
</g>
</svg>
