<?xml version="1.0" encoding="UTF-8"?>
<svg xmlns="http://www.w3.org/2000/svg" xmlns:xlink="http://www.w3.org/1999/xlink" width="229.72pt" height="100.97pt" viewBox="0 0 229.72 100.97">
<defs>
<g>
<g id="glyph-0-0">
<path d="M 6.453125 -0.171875 C 6.453125 -0.28125 6.359375 -0.28125 6.25 -0.28125 C 5.6875 -0.28125 5.6875 -0.34375 5.671875 -0.59375 L 5.125 -6.203125 C 5.109375 -6.375 5.109375 -6.40625 4.953125 -6.40625 C 4.8125 -6.40625 4.765625 -6.34375 4.71875 -6.265625 L 1.609375 -1.03125 C 1.25 -0.4375 0.890625 -0.296875 0.5 -0.28125 C 0.390625 -0.265625 0.3125 -0.265625 0.3125 -0.09375 C 0.3125 -0.046875 0.359375 0 0.4375 0 C 0.671875 0 0.953125 -0.03125 1.203125 -0.03125 C 1.5 -0.03125 1.8125 0 2.09375 0 C 2.15625 0 2.265625 0 2.265625 -0.171875 C 2.265625 -0.265625 2.1875 -0.28125 2.125 -0.28125 C 1.921875 -0.296875 1.703125 -0.359375 1.703125 -0.59375 C 1.703125 -0.703125 1.75 -0.796875 1.828125 -0.921875 C 1.890625 -1.03125 1.890625 -1.03125 2.5 -2.0625 L 4.75 -2.0625 C 4.765625 -1.875 4.890625 -0.65625 4.890625 -0.578125 C 4.890625 -0.296875 4.4375 -0.28125 4.25 -0.28125 C 4.125 -0.28125 4.03125 -0.28125 4.03125 -0.09375 C 4.03125 0 4.15625 0 4.15625 0 C 4.53125 0 4.921875 -0.03125 5.28125 -0.03125 C 5.5 -0.03125 6.0625 0 6.296875 0 C 6.34375 0 6.453125 0 6.453125 -0.171875 Z M 4.734375 -2.34375 L 2.671875 -2.34375 L 4.4375 -5.296875 Z M 4.734375 -2.34375 "/>
</g>
<g id="glyph-0-1">
<path d="M 6.765625 -4.875 C 6.765625 -5.546875 6.171875 -6.109375 5.109375 -6.109375 L 2.09375 -6.109375 C 1.921875 -6.109375 1.828125 -6.109375 1.828125 -5.9375 C 1.828125 -5.84375 1.921875 -5.84375 2.09375 -5.84375 C 2.09375 -5.84375 2.28125 -5.84375 2.421875 -5.8125 C 2.59375 -5.796875 2.671875 -5.796875 2.671875 -5.671875 C 2.671875 -5.640625 2.65625 -5.609375 2.625 -5.5 L 1.4375 -0.703125 C 1.34375 -0.34375 1.328125 -0.28125 0.625 -0.28125 C 0.46875 -0.28125 0.375 -0.28125 0.375 -0.09375 C 0.375 0 0.453125 0 0.625 0 L 3.8125 0 C 5.234375 0 6.28125 -1.0625 6.28125 -1.9375 C 6.28125 -2.578125 5.765625 -3.09375 4.890625 -3.203125 C 5.828125 -3.359375 6.765625 -4.03125 6.765625 -4.875 Z M 5.953125 -4.921875 C 5.953125 -4.125 5.1875 -3.28125 4.09375 -3.28125 L 2.78125 -3.28125 L 3.34375 -5.5 C 3.421875 -5.8125 3.4375 -5.84375 3.828125 -5.84375 L 4.984375 -5.84375 C 5.765625 -5.84375 5.953125 -5.3125 5.953125 -4.921875 Z M 5.453125 -2.03125 C 5.453125 -1.140625 4.65625 -0.28125 3.59375 -0.28125 L 2.375 -0.28125 C 2.25 -0.28125 2.234375 -0.28125 2.1875 -0.28125 C 2.09375 -0.296875 2.0625 -0.296875 2.0625 -0.375 C 2.0625 -0.40625 2.0625 -0.421875 2.109375 -0.578125 L 2.734375 -3.078125 L 4.421875 -3.078125 C 5.28125 -3.078125 5.453125 -2.421875 5.453125 -2.03125 Z M 5.453125 -2.03125 "/>
</g>
<g id="glyph-0-2">
<path d="M 7.203125 -3.84375 C 7.203125 -5.109375 6.4375 -6.109375 5.09375 -6.109375 L 2.09375 -6.109375 C 1.921875 -6.109375 1.8125 -6.109375 1.8125 -5.9375 C 1.8125 -5.84375 1.890625 -5.84375 2.078125 -5.84375 C 2.1875 -5.84375 2.359375 -5.828125 2.46875 -5.8125 C 2.609375 -5.796875 2.65625 -5.78125 2.65625 -5.671875 C 2.65625 -5.640625 2.65625 -5.609375 2.625 -5.5 L 1.421875 -0.703125 C 1.328125 -0.34375 1.3125 -0.28125 0.609375 -0.28125 C 0.453125 -0.28125 0.359375 -0.28125 0.359375 -0.109375 C 0.359375 0 0.4375 0 0.609375 0 L 3.578125 0 C 5.4375 0 7.203125 -1.890625 7.203125 -3.84375 Z M 6.421875 -4.1875 C 6.421875 -3.75 6.234375 -2.28125 5.484375 -1.296875 C 5.21875 -0.953125 4.515625 -0.28125 3.40625 -0.28125 L 2.40625 -0.28125 C 2.28125 -0.28125 2.25 -0.28125 2.203125 -0.28125 C 2.109375 -0.296875 2.09375 -0.296875 2.09375 -0.375 C 2.09375 -0.40625 2.09375 -0.421875 2.125 -0.578125 L 3.359375 -5.5 C 3.4375 -5.8125 3.453125 -5.84375 3.84375 -5.84375 L 4.796875 -5.84375 C 5.671875 -5.84375 6.421875 -5.359375 6.421875 -4.1875 Z M 6.421875 -4.1875 "/>
</g>
<g id="glyph-0-3">
<path d="M 9.390625 -6.015625 C 9.390625 -6.046875 9.34375 -6.109375 9.28125 -6.109375 C 9.0625 -6.109375 8.8125 -6.09375 8.59375 -6.09375 C 8.28125 -6.09375 7.953125 -6.109375 7.65625 -6.109375 C 7.59375 -6.109375 7.484375 -6.109375 7.484375 -5.9375 C 7.484375 -5.84375 7.5625 -5.84375 7.625 -5.84375 C 7.828125 -5.828125 8.140625 -5.75 8.140625 -5.484375 C 8.140625 -5.390625 8.109375 -5.3125 8.03125 -5.1875 L 5.609375 -0.96875 L 5.28125 -5.421875 C 5.265625 -5.59375 5.25 -5.828125 5.90625 -5.84375 C 6.0625 -5.84375 6.15625 -5.84375 6.15625 -6.015625 C 6.15625 -6.109375 6.046875 -6.109375 6.015625 -6.109375 C 5.65625 -6.109375 5.28125 -6.09375 4.921875 -6.09375 C 4.71875 -6.09375 4.1875 -6.109375 3.984375 -6.109375 C 3.9375 -6.109375 3.8125 -6.109375 3.8125 -5.9375 C 3.8125 -5.84375 3.90625 -5.84375 4.03125 -5.84375 C 4.421875 -5.84375 4.484375 -5.78125 4.5 -5.609375 L 4.5625 -4.921875 L 2.296875 -0.96875 L 1.953125 -5.515625 C 1.953125 -5.625 1.953125 -5.828125 2.625 -5.84375 C 2.71875 -5.84375 2.8125 -5.84375 2.8125 -6.015625 C 2.8125 -6.109375 2.6875 -6.109375 2.6875 -6.109375 C 2.34375 -6.109375 1.953125 -6.09375 1.59375 -6.09375 C 1.28125 -6.09375 0.953125 -6.109375 0.65625 -6.109375 C 0.609375 -6.109375 0.5 -6.109375 0.5 -5.9375 C 0.5 -5.84375 0.578125 -5.84375 0.71875 -5.84375 C 1.15625 -5.84375 1.171875 -5.75 1.1875 -5.5 L 1.59375 -0.03125 C 1.609375 0.125 1.609375 0.203125 1.734375 0.203125 C 1.84375 0.203125 1.875 0.140625 1.953125 0.015625 L 4.578125 -4.5625 L 4.921875 -0.03125 C 4.9375 0.15625 4.953125 0.203125 5.0625 0.203125 C 5.171875 0.203125 5.234375 0.109375 5.265625 0.03125 L 8.203125 -5.078125 C 8.4375 -5.46875 8.65625 -5.796875 9.21875 -5.84375 C 9.296875 -5.84375 9.390625 -5.84375 9.390625 -6.015625 Z M 9.390625 -6.015625 "/>
</g>
<g id="glyph-1-0">
<path d="M 0.953125 0.03125 C 0.910156 0.03125 0.878906 0.0195312 0.859375 0 C 0.835938 -0.03125 0.828125 -0.0546875 0.828125 -0.078125 C 0.828125 -0.128906 0.867188 -0.171875 0.953125 -0.203125 C 1.179688 -0.253906 1.367188 -0.304688 1.515625 -0.359375 C 1.660156 -0.410156 1.765625 -0.484375 1.828125 -0.578125 C 1.898438 -0.671875 1.9375 -0.800781 1.9375 -0.96875 L 1.9375 -4.375 C 1.9375 -4.488281 1.898438 -4.578125 1.828125 -4.640625 C 1.753906 -4.703125 1.660156 -4.742188 1.546875 -4.765625 C 1.441406 -4.785156 1.320312 -4.800781 1.1875 -4.8125 C 1.125 -4.8125 1.066406 -4.820312 1.015625 -4.84375 C 0.972656 -4.875 0.953125 -4.910156 0.953125 -4.953125 C 0.953125 -4.992188 0.972656 -5.03125 1.015625 -5.0625 C 1.066406 -5.09375 1.117188 -5.113281 1.171875 -5.125 C 1.441406 -5.164062 1.679688 -5.21875 1.890625 -5.28125 C 2.109375 -5.34375 2.316406 -5.472656 2.515625 -5.671875 C 2.523438 -5.679688 2.53125 -5.6875 2.53125 -5.6875 C 2.539062 -5.6875 2.550781 -5.6875 2.5625 -5.6875 C 2.59375 -5.6875 2.617188 -5.675781 2.640625 -5.65625 C 2.660156 -5.644531 2.671875 -5.628906 2.671875 -5.609375 C 2.660156 -5.515625 2.648438 -5.414062 2.640625 -5.3125 C 2.628906 -5.207031 2.625 -5.09375 2.625 -4.96875 L 2.625 -0.859375 C 2.625 -0.710938 2.648438 -0.597656 2.703125 -0.515625 C 2.765625 -0.441406 2.863281 -0.382812 3 -0.34375 C 3.144531 -0.300781 3.335938 -0.25 3.578125 -0.1875 C 3.609375 -0.175781 3.640625 -0.160156 3.671875 -0.140625 C 3.710938 -0.117188 3.734375 -0.0976562 3.734375 -0.078125 C 3.734375 -0.00390625 3.691406 0.03125 3.609375 0.03125 C 3.441406 0.03125 3.285156 0.0234375 3.140625 0.015625 C 3.003906 0.00390625 2.867188 0 2.734375 0 C 2.597656 -0.0078125 2.453125 -0.015625 2.296875 -0.015625 C 2.128906 -0.015625 1.972656 -0.0078125 1.828125 0 C 1.691406 0 1.550781 0.00390625 1.40625 0.015625 C 1.269531 0.0234375 1.117188 0.03125 0.953125 0.03125 Z M 0.953125 0.03125 "/>
</g>
<g id="glyph-1-1">
<path d="M 3.75 0.03125 C 3.707031 0.03125 3.640625 0.0234375 3.546875 0.015625 C 3.453125 0.015625 3.347656 0.0078125 3.234375 0 C 3.128906 -0.0078125 3.015625 -0.015625 2.890625 -0.015625 C 2.765625 -0.0234375 2.644531 -0.03125 2.53125 -0.03125 C 2.425781 -0.03125 2.269531 -0.0234375 2.0625 -0.015625 C 1.851562 -0.015625 1.632812 -0.0078125 1.40625 0 C 1.175781 0 0.972656 0 0.796875 0 C 0.628906 0.0078125 0.519531 0.015625 0.46875 0.015625 C 0.445312 0.015625 0.410156 0 0.359375 -0.03125 C 0.316406 -0.0703125 0.296875 -0.109375 0.296875 -0.140625 C 0.296875 -0.160156 0.300781 -0.175781 0.3125 -0.1875 C 0.320312 -0.207031 0.335938 -0.226562 0.359375 -0.25 L 1.890625 -1.828125 C 2.179688 -2.140625 2.425781 -2.484375 2.625 -2.859375 C 2.820312 -3.242188 2.921875 -3.632812 2.921875 -4.03125 C 2.921875 -4.34375 2.820312 -4.585938 2.625 -4.765625 C 2.4375 -4.953125 2.21875 -5.046875 1.96875 -5.046875 C 1.71875 -5.046875 1.488281 -4.976562 1.28125 -4.84375 C 1.082031 -4.707031 0.921875 -4.535156 0.796875 -4.328125 C 0.773438 -4.296875 0.75 -4.265625 0.71875 -4.234375 C 0.695312 -4.210938 0.671875 -4.203125 0.640625 -4.203125 C 0.617188 -4.203125 0.585938 -4.226562 0.546875 -4.28125 C 0.515625 -4.332031 0.5 -4.394531 0.5 -4.46875 C 0.5 -4.539062 0.539062 -4.640625 0.625 -4.765625 C 0.71875 -4.890625 0.84375 -5.015625 1 -5.140625 C 1.15625 -5.273438 1.335938 -5.390625 1.546875 -5.484375 C 1.765625 -5.578125 2 -5.625 2.25 -5.625 C 2.539062 -5.625 2.789062 -5.5625 3 -5.4375 C 3.21875 -5.3125 3.382812 -5.132812 3.5 -4.90625 C 3.613281 -4.6875 3.671875 -4.4375 3.671875 -4.15625 C 3.671875 -3.988281 3.640625 -3.8125 3.578125 -3.625 C 3.523438 -3.445312 3.445312 -3.265625 3.34375 -3.078125 C 3.25 -2.898438 3.140625 -2.738281 3.015625 -2.59375 C 2.941406 -2.488281 2.828125 -2.359375 2.671875 -2.203125 C 2.523438 -2.046875 2.363281 -1.878906 2.1875 -1.703125 C 2.007812 -1.523438 1.84375 -1.359375 1.6875 -1.203125 C 1.53125 -1.046875 1.398438 -0.914062 1.296875 -0.8125 C 1.191406 -0.707031 1.140625 -0.648438 1.140625 -0.640625 C 1.140625 -0.609375 1.179688 -0.585938 1.265625 -0.578125 C 1.367188 -0.566406 1.484375 -0.554688 1.609375 -0.546875 C 1.742188 -0.546875 1.894531 -0.546875 2.0625 -0.546875 C 2.226562 -0.546875 2.394531 -0.546875 2.5625 -0.546875 C 2.738281 -0.554688 2.910156 -0.566406 3.078125 -0.578125 C 3.242188 -0.585938 3.375 -0.597656 3.46875 -0.609375 C 3.570312 -0.628906 3.65625 -0.664062 3.71875 -0.71875 C 3.78125 -0.78125 3.847656 -0.867188 3.921875 -0.984375 C 3.941406 -1.023438 3.972656 -1.070312 4.015625 -1.125 C 4.054688 -1.175781 4.097656 -1.203125 4.140625 -1.203125 C 4.171875 -1.203125 4.1875 -1.1875 4.1875 -1.15625 C 4.195312 -1.132812 4.203125 -1.113281 4.203125 -1.09375 C 4.203125 -1.0625 4.1875 -1 4.15625 -0.90625 C 4.125 -0.820312 4.085938 -0.71875 4.046875 -0.59375 C 4.003906 -0.46875 3.96875 -0.332031 3.9375 -0.1875 C 3.914062 -0.09375 3.882812 -0.03125 3.84375 0 C 3.800781 0.0195312 3.769531 0.03125 3.75 0.03125 Z M 3.75 0.03125 "/>
</g>
</g>
</defs>
<g fill="rgb(0%, 0%, 0%)" fill-opacity="1">
<use xlink:href="#glyph-0-0" x="109.825137" y="95.918622"/>
</g>
<path fill="none" stroke-width="0.3985" stroke-linecap="butt" stroke-linejoin="miter" stroke="rgb(0%, 0%, 0%)" stroke-opacity="1" stroke-miterlimit="10" d="M 176.339255 11.955846 C 176.339255 13.05484 175.447545 13.946551 174.34855 13.946551 C 173.249556 13.946551 172.357846 13.05484 172.357846 11.955846 C 172.357846 10.852941 173.249556 9.96123 174.34855 9.96123 C 175.447545 9.96123 176.339255 10.852941 176.339255 11.955846 Z M 176.339255 11.955846 " transform="matrix(0.998783, 0, 0, -0.998783, -60.952706, 97.113166)"/>
<path fill="none" stroke-width="0.3985" stroke-linecap="butt" stroke-linejoin="miter" stroke="rgb(0%, 0%, 0%)" stroke-opacity="1" stroke-miterlimit="10" d="M 172.357846 12.953154 L 103.614001 47.323121 " transform="matrix(0.998783, 0, 0, -0.998783, -60.952706, 97.113166)"/>
<path fill="none" stroke-width="0.3985" stroke-linecap="butt" stroke-linejoin="miter" stroke="rgb(0%, 0%, 0%)" stroke-opacity="1" stroke-miterlimit="10" d="M 176.339255 12.953154 L 245.0831 47.323121 " transform="matrix(0.998783, 0, 0, -0.998783, -60.952706, 97.113166)"/>
<g fill="rgb(0%, 0%, 0%)" fill-opacity="1">
<use xlink:href="#glyph-1-0" x="71.231178" y="75.990911"/>
</g>
<g fill="rgb(0%, 0%, 0%)" fill-opacity="1">
<use xlink:href="#glyph-1-1" x="150.837148" y="75.990911"/>
</g>
<g fill="rgb(0%, 0%, 0%)" fill-opacity="1">
<use xlink:href="#glyph-0-1" x="40.018223" y="61.092071"/>
</g>
<path fill-rule="nonzero" fill="rgb(0%, 0%, 0%)" fill-opacity="1" d="M 45.519531 50.34375 C 45.519531 49.246094 44.628906 48.355469 43.527344 48.355469 C 42.429688 48.355469 41.539062 49.246094 41.539062 50.34375 C 41.539062 51.445312 42.429688 52.335938 43.527344 52.335938 C 44.628906 52.335938 45.519531 51.445312 45.519531 50.34375 Z M 45.519531 50.34375 "/>
<path fill="none" stroke-width="0.3985" stroke-linecap="butt" stroke-linejoin="miter" stroke="rgb(0%, 0%, 0%)" stroke-opacity="1" stroke-miterlimit="10" d="M 104.607398 46.826422 L 69.740733 81.693087 " transform="matrix(0.998783, 0, 0, -0.998783, -60.952706, 97.113166)"/>
<path fill="none" stroke-width="0.3985" stroke-linecap="butt" stroke-linejoin="miter" stroke="rgb(0%, 0%, 0%)" stroke-opacity="1" stroke-miterlimit="10" d="M 104.607398 46.826422 L 139.477974 81.693087 " transform="matrix(0.998783, 0, 0, -0.998783, -60.952706, 97.113166)"/>
<g fill="rgb(0%, 0%, 0%)" fill-opacity="1">
<use xlink:href="#glyph-1-0" x="16.502885" y="41.163362"/>
</g>
<g fill="rgb(0%, 0%, 0%)" fill-opacity="1">
<use xlink:href="#glyph-0-2" x="4.975935" y="11.338714"/>
</g>
<g fill="rgb(0%, 0%, 0%)" fill-opacity="1">
<use xlink:href="#glyph-1-1" x="66.256242" y="41.163362"/>
</g>
<g fill="rgb(0%, 0%, 0%)" fill-opacity="1">
<use xlink:href="#glyph-0-3" x="73.538366" y="11.141954"/>
</g>
<g fill="rgb(0%, 0%, 0%)" fill-opacity="1">
<use xlink:href="#glyph-0-1" x="179.327422" y="61.092071"/>
</g>
<path fill-rule="nonzero" fill="rgb(0%, 0%, 0%)" fill-opacity="1" d="M 184.828125 50.34375 C 184.828125 49.246094 183.9375 48.355469 182.839844 48.355469 C 181.738281 48.355469 180.847656 49.246094 180.847656 50.34375 C 180.847656 51.445312 181.738281 52.335938 182.839844 52.335938 C 183.9375 52.335938 184.828125 51.445312 184.828125 50.34375 Z M 184.828125 50.34375 "/>
<path fill="none" stroke-width="0.3985" stroke-linecap="butt" stroke-linejoin="miter" stroke="rgb(0%, 0%, 0%)" stroke-opacity="1" stroke-miterlimit="10" d="M 244.089703 46.826422 L 209.219127 81.693087 " transform="matrix(0.998783, 0, 0, -0.998783, -60.952706, 97.113166)"/>
<g fill="rgb(0%, 0%, 0%)" fill-opacity="1">
<use xlink:href="#glyph-0-3" x="143.192466" y="11.141954"/>
</g>
<path fill="none" stroke-width="0.3985" stroke-linecap="butt" stroke-linejoin="miter" stroke="rgb(0%, 0%, 0%)" stroke-opacity="1" stroke-miterlimit="10" d="M 244.089703 46.826422 L 278.956368 81.693087 " transform="matrix(0.998783, 0, 0, -0.998783, -60.952706, 97.113166)"/>
<g fill="rgb(0%, 0%, 0%)" fill-opacity="1">
<use xlink:href="#glyph-0-3" x="212.847565" y="11.141954"/>
</g>
<g fill="rgb(0%, 0%, 0%)" fill-opacity="1">
<use xlink:href="#glyph-1-0" x="155.812085" y="41.163362"/>
</g>
<g fill="rgb(0%, 0%, 0%)" fill-opacity="1">
<use xlink:href="#glyph-1-1" x="205.565441" y="41.163362"/>
</g>
</svg>
